<svg width="129" height="20" viewBox="0 0 129 20" fill="none" xmlns="http://www.w3.org/2000/svg">
<path d="M7.90217 0.557596H5.34992L0.0490818 3.60067V7.23272L3.97563 5.22037V17H7.90217V0.557596ZM12.4342 12.7053C11.7961 12.7053 11.2562 12.9262 10.839 13.3679C10.3973 13.8097 10.201 14.325 10.201 14.914C10.201 15.5521 10.3973 16.092 10.839 16.5092C11.2562 16.9264 11.7961 17.1227 12.4342 17.1227C13.0722 17.1227 13.6121 16.9264 14.0539 16.4846C14.4711 16.0674 14.6919 15.5521 14.6919 14.914C14.6919 14.325 14.4711 13.8097 14.0293 13.3679C13.5876 12.9262 13.0722 12.7053 12.4342 12.7053ZM23.0006 0.189481C20.8164 0.189481 19.074 0.999332 17.7488 2.56995C16.4236 4.14057 15.761 6.22654 15.761 8.7788C15.761 11.3556 16.4236 13.4416 17.7488 15.0122C19.074 16.5828 20.8164 17.3681 23.0006 17.3681C25.1602 17.3681 26.9271 16.5828 28.2523 15.0122C29.5775 13.4416 30.2647 11.3556 30.2647 8.7788C30.2647 6.22654 29.5775 4.14057 28.2523 2.56995C26.9271 0.999332 25.1602 0.189481 23.0006 0.189481ZM23.0006 13.8097C22.0189 13.8097 21.2582 13.3679 20.6937 12.4599C20.1048 11.5519 19.8348 10.3249 19.8348 8.7788C19.8348 7.25726 20.1048 6.03022 20.6937 5.1222C21.2582 4.21419 22.0189 3.74791 23.0006 3.74791C23.9577 3.74791 24.7184 4.21419 25.3074 5.1222C25.8964 6.03022 26.1909 7.25726 26.1909 8.7788C26.1909 10.3249 25.8964 11.5519 25.3074 12.4599C24.7184 13.3679 23.9577 13.8097 23.0006 13.8097ZM39.1688 0.557596H36.6166L31.3157 3.60067V7.23272L35.2423 5.22037V17H39.1688V0.557596ZM51.1858 8.58247C52.8055 7.84624 53.6399 6.57012 53.6399 4.80317C53.6399 3.45342 53.0755 2.34908 51.9711 1.49015C50.8668 0.631218 49.4434 0.189481 47.7255 0.189481C45.9831 0.189481 44.5598 0.631218 43.4554 1.49015C42.3511 2.34908 41.8112 3.45342 41.8112 4.80317C41.8112 6.57012 42.621 7.84624 44.2407 8.58247C43.2591 8.95058 42.5229 9.46594 42.0075 10.1531C41.4921 10.8402 41.2467 11.6255 41.2467 12.509C41.2467 13.9324 41.8357 15.1104 43.0382 16.0184C44.2162 16.9264 45.7868 17.3681 47.7255 17.3681C49.6397 17.3681 51.1858 16.9264 52.3638 16.0184C53.5417 15.1104 54.1553 13.9324 54.1553 12.509C54.1553 11.6255 53.8853 10.8402 53.3699 10.1531C52.8546 9.49048 52.1184 8.97512 51.1858 8.58247ZM47.701 3.23255C48.29 3.23255 48.8053 3.40434 49.2471 3.74791C49.6643 4.09149 49.8851 4.53322 49.8851 5.1222C49.8851 5.71119 49.6643 6.17746 49.2471 6.52103C48.8053 6.86461 48.29 7.03639 47.701 7.03639C47.112 7.03639 46.5967 6.88915 46.1795 6.54558C45.7623 6.202 45.5659 5.73573 45.5659 5.14674C45.5659 4.55776 45.7623 4.09149 46.1795 3.74791C46.5721 3.40434 47.0875 3.23255 47.701 3.23255ZM47.701 14.1778C47.0629 14.1778 46.523 14.006 46.1058 13.6624C45.6641 13.3189 45.4678 12.828 45.4678 12.2145C45.4678 11.5765 45.6641 11.0856 46.1058 10.7421C46.523 10.3985 47.0629 10.2022 47.701 10.2022C48.3145 10.2022 48.8544 10.3985 49.2962 10.7421C49.7379 11.0856 49.9833 11.5765 49.9833 12.1654C49.9833 12.8035 49.7379 13.2943 49.2962 13.6379C48.8544 14.006 48.3145 14.1778 47.701 14.1778Z" fill="#2DCACF"/>
<path d="M65.9689 3.446C63.6649 5.534 62.5309 8.054 62.5309 10.97C62.5309 13.904 63.6649 16.406 65.9689 18.476L67.2829 17.324C66.2749 16.298 65.5549 15.29 65.1589 14.282C64.7449 13.292 64.5469 12.194 64.5469 10.97C64.5469 9.764 64.7449 8.666 65.1589 7.658C65.5549 6.65 66.2749 5.642 67.2829 4.616L65.9689 3.446ZM77.8196 13.364C77.8196 11.744 76.8476 10.718 74.9216 10.286L74.2016 10.142V6.812C74.6516 6.956 75.0296 7.226 75.3356 7.586C75.6236 7.946 75.7856 8.414 75.8036 8.954L77.6756 8.612C77.6036 7.712 77.2616 6.956 76.6496 6.344C76.0376 5.732 75.2276 5.354 74.2556 5.192V3.14H72.6536V5.156C71.6096 5.264 70.7636 5.624 70.1336 6.218C69.5036 6.812 69.1976 7.568 69.1976 8.486C69.1976 9.368 69.4676 10.052 70.0076 10.52C70.5476 11.006 71.2496 11.33 72.0776 11.474L72.7256 11.618V15.092C71.5376 14.786 70.8896 14.03 70.8176 12.824L68.9096 13.202C68.9816 14.156 69.3596 14.948 70.0616 15.56C70.7636 16.19 71.6276 16.586 72.6536 16.73V18.8H74.2556V16.802C75.3176 16.712 76.1816 16.352 76.8296 15.74C77.4776 15.128 77.8196 14.336 77.8196 13.364ZM72.7256 9.818L72.5276 9.782C71.5916 9.566 71.1416 9.098 71.1416 8.378C71.1416 7.982 71.2676 7.622 71.5556 7.334C71.8436 7.046 72.2216 6.848 72.7256 6.74V9.818ZM74.2016 11.942L74.4536 11.996C75.4796 12.212 76.0016 12.68 76.0016 13.436C76.0016 13.886 75.8396 14.264 75.5156 14.57C75.1916 14.894 74.7416 15.092 74.2016 15.164V11.942ZM87.3907 15.254H82.1887L84.5647 12.986C85.5367 12.05 86.2387 11.258 86.6527 10.61C87.0667 9.962 87.2827 9.242 87.2827 8.414C87.2827 7.316 86.9047 6.416 86.1667 5.732C85.4107 5.048 84.4387 4.688 83.2507 4.688C82.0267 4.688 81.0547 5.048 80.2987 5.732C79.5427 6.434 79.1287 7.37 79.0927 8.54L80.8567 8.9C80.8927 8.072 81.1267 7.442 81.5407 7.01C81.9547 6.578 82.5127 6.362 83.2327 6.362C83.8807 6.362 84.4027 6.56 84.8167 6.938C85.2127 7.334 85.4287 7.838 85.4287 8.45C85.4287 8.81 85.3747 9.116 85.2847 9.404C85.1947 9.692 85.0327 9.998 84.7987 10.286C84.5467 10.592 84.3487 10.826 84.2047 10.97C84.0427 11.132 83.7727 11.384 83.4127 11.726L79.2367 15.758V17H87.3907V15.254ZM89.8419 19.376L91.7319 14.642V14.588H89.5539L88.4199 19.376H89.8419ZM99.7906 10.88C100.277 10.682 100.655 10.358 100.943 9.908C101.213 9.458 101.357 8.936 101.357 8.324C101.357 7.244 100.979 6.38 100.241 5.696C99.5026 5.03 98.5306 4.688 97.3426 4.688C96.1366 4.688 95.1466 5.048 94.3906 5.75C93.6166 6.47 93.1846 7.388 93.0946 8.522L94.8766 8.882C94.9126 8.072 95.1646 7.46 95.6146 7.028C96.0466 6.596 96.6226 6.38 97.3426 6.38C98.0086 6.38 98.5486 6.56 98.9626 6.92C99.3586 7.28 99.5746 7.748 99.5746 8.324C99.5746 8.864 99.3766 9.296 98.9986 9.62C98.6026 9.944 98.0806 10.106 97.4326 10.106H96.2446V11.654H97.5406C98.2426 11.654 98.8006 11.834 99.1966 12.158C99.5926 12.5 99.7906 12.95 99.7906 13.508C99.7906 14.12 99.5566 14.624 99.1066 15.002C98.6566 15.38 98.0806 15.56 97.3606 15.56C96.5866 15.56 95.9746 15.344 95.5426 14.894C95.0926 14.444 94.8226 13.814 94.7506 13.022L92.9326 13.382C93.0226 14.552 93.4726 15.488 94.2826 16.19C95.0746 16.91 96.1006 17.252 97.3606 17.252C98.6026 17.252 99.6106 16.91 100.385 16.226C101.159 15.542 101.555 14.624 101.555 13.49C101.555 12.86 101.393 12.32 101.087 11.87C100.763 11.42 100.331 11.096 99.7906 10.88ZM107.623 4.688C106.327 4.688 105.283 5.084 104.491 5.84C103.681 6.614 103.285 7.586 103.285 8.774C103.285 9.944 103.663 10.898 104.419 11.636C105.175 12.374 106.183 12.734 107.461 12.734C108.109 12.734 108.703 12.608 109.279 12.32C109.855 12.05 110.305 11.672 110.647 11.204C110.683 12.716 110.341 13.868 109.585 14.696C109.045 15.272 108.397 15.542 107.641 15.542C106.471 15.542 105.733 15.074 105.445 14.138L103.591 14.498C103.843 15.38 104.311 16.064 105.013 16.532C105.715 17.018 106.561 17.252 107.569 17.252C108.865 17.252 109.963 16.802 110.845 15.902C111.925 14.786 112.465 13.058 112.465 10.718C112.465 8.828 112.033 7.352 111.169 6.29C110.305 5.228 109.117 4.688 107.623 4.688ZM107.659 11.15C106.975 11.15 106.381 10.934 105.913 10.484C105.445 10.034 105.211 9.476 105.211 8.792C105.211 8.126 105.445 7.568 105.913 7.1C106.381 6.65 106.975 6.416 107.659 6.416C108.325 6.416 108.901 6.65 109.369 7.082C109.837 7.514 110.089 8.072 110.089 8.756C110.089 9.44 109.855 10.016 109.387 10.466C108.919 10.934 108.343 11.15 107.659 11.15ZM119.203 9.188C118.555 9.188 117.961 9.332 117.385 9.602C116.809 9.89 116.341 10.25 115.999 10.718C115.945 9.224 116.305 8.072 117.061 7.244C117.601 6.668 118.249 6.38 119.023 6.38C120.175 6.38 120.913 6.866 121.201 7.802L123.055 7.442C122.803 6.578 122.335 5.894 121.633 5.408C120.913 4.94 120.067 4.688 119.095 4.688C117.781 4.688 116.683 5.138 115.819 6.038C114.721 7.154 114.181 8.882 114.181 11.222C114.181 13.13 114.613 14.606 115.477 15.668C116.341 16.73 117.529 17.252 119.041 17.252C120.301 17.252 121.345 16.874 122.155 16.1C122.947 15.344 123.361 14.354 123.361 13.166C123.361 11.996 122.983 11.042 122.227 10.304C121.471 9.566 120.463 9.188 119.203 9.188ZM118.987 15.524C118.321 15.524 117.745 15.308 117.277 14.858C116.791 14.426 116.557 13.868 116.557 13.184C116.557 12.5 116.791 11.942 117.259 11.474C117.727 11.024 118.303 10.79 118.987 10.79C119.671 10.79 120.247 11.024 120.715 11.456C121.183 11.906 121.435 12.464 121.435 13.148C121.435 13.832 121.183 14.408 120.715 14.858C120.247 15.308 119.671 15.524 118.987 15.524ZM124.127 4.616C125.135 5.642 125.837 6.65 126.251 7.658C126.647 8.666 126.863 9.764 126.863 10.97C126.863 12.194 126.647 13.292 126.251 14.282C125.837 15.29 125.135 16.298 124.127 17.324L125.441 18.476C127.727 16.406 128.879 13.904 128.879 10.97C128.879 8.054 127.727 5.534 125.441 3.446L124.127 4.616Z" fill="#0F0028"/>
</svg>
