<svg width="160" height="23" viewBox="0 0 160 23" fill="none" xmlns="http://www.w3.org/2000/svg">
<path d="M21.8096 0.230355H16.4504V13.3018L5.37232 0.230355H0.895357V22.125H6.28732V9.44571L17.3654 22.125H21.8096V0.230355ZM30.2027 4.96875H41.7382V0.230355H24.8107V22.125H30.2027V14.2821H40.4637V9.57643H30.2027V4.96875ZM61.8243 4.93607V0.230355H42.2825V4.93607H49.3738V22.125H54.7331V4.93607H61.8243Z" fill="#0F0028"/>
<path d="M84.7031 10.8182C85.5528 10.7529 86.3697 10.2954 87.154 9.47839C87.9056 8.69411 88.2978 7.58303 88.2978 6.21053C88.2978 4.41321 87.6769 2.97536 86.4678 1.86428C85.2587 0.78589 83.6574 0.230355 81.664 0.230355H70.3246V22.125H81.6967C84.0169 22.125 85.8142 21.5695 87.056 20.4584C88.2978 19.3473 88.9187 17.8768 88.9187 15.9814C88.9187 14.4782 88.4939 13.2691 87.6442 12.3868C86.7946 11.5371 85.8142 11.047 84.7031 10.9489V10.8182ZM75.7165 4.57661H80.6183C81.3046 4.57661 81.8928 4.80535 82.3503 5.1975C82.8078 5.62232 83.0692 6.17785 83.0692 6.83143C83.0692 7.58303 82.8078 8.17125 82.3503 8.62875C81.8601 9.08625 81.2065 9.28232 80.4222 9.28232H75.7165V4.57661ZM75.7165 17.7787V12.975H80.8471C81.5987 12.975 82.2196 13.2037 82.7097 13.6286C83.1672 14.0534 83.4287 14.6089 83.4287 15.3279C83.4287 16.1121 83.1672 16.7004 82.7097 17.1252C82.2522 17.5827 81.5987 17.7787 80.749 17.7787H75.7165ZM108.399 5.72035H103.17V7.0275C101.83 5.85107 100.131 5.23018 98.0722 5.23018C95.8501 5.23018 93.9547 6.04714 92.3862 7.68107C90.8176 9.315 90.066 11.4064 90.066 13.9227C90.066 16.4716 90.8176 18.563 92.3862 20.197C93.9547 21.8309 95.8501 22.6152 98.0722 22.6152C100.131 22.6152 101.83 22.027 103.17 20.8179V22.125H108.399V5.72035ZM99.1506 18.1709C97.9742 18.1709 97.0265 17.7787 96.3076 16.9945C95.556 16.2102 95.1965 15.1971 95.1965 13.9227C95.1965 12.6809 95.556 11.6679 96.3076 10.8836C97.0265 10.0993 97.9742 9.67446 99.1506 9.67446C100.229 9.67446 101.177 10.0993 101.961 10.8836C102.745 11.7005 103.17 12.7136 103.17 13.9227C103.17 15.1645 102.745 16.2102 101.961 16.9945C101.177 17.7787 100.229 18.1709 99.1506 18.1709ZM125.834 17.9748H117.305L125.54 9.15161V5.72035H110.868V9.87053H118.907L110.672 18.7591V22.125H125.834V17.9748ZM144.964 5.72035H139.736V7.0275C138.396 5.85107 136.697 5.23018 134.638 5.23018C132.416 5.23018 130.52 6.04714 128.952 7.68107C127.383 9.315 126.632 11.4064 126.632 13.9227C126.632 16.4716 127.383 18.563 128.952 20.197C130.52 21.8309 132.416 22.6152 134.638 22.6152C136.697 22.6152 138.396 22.027 139.736 20.8179V22.125H144.964V5.72035ZM135.716 18.1709C134.54 18.1709 133.592 17.7787 132.873 16.9945C132.122 16.2102 131.762 15.1971 131.762 13.9227C131.762 12.6809 132.122 11.6679 132.873 10.8836C133.592 10.0993 134.54 9.67446 135.716 9.67446C136.795 9.67446 137.742 10.0993 138.527 10.8836C139.311 11.7005 139.736 12.7136 139.736 13.9227C139.736 15.1645 139.311 16.2102 138.527 16.9945C137.742 17.7787 136.795 18.1709 135.716 18.1709ZM158.805 5.49161C156.387 5.49161 154.492 6.63535 153.152 8.8575V5.72035H147.923V22.125H153.152V16.9945C153.152 12.9096 155.015 10.8509 158.805 10.8509H159.753L159.982 5.62232C159.622 5.55696 159.23 5.49161 158.805 5.49161Z" fill="#2DCACF"/>
</svg>
