<svg width="193" height="20" viewBox="0 0 193 20" fill="none" xmlns="http://www.w3.org/2000/svg">
<path d="M111.846 13.6894C111.306 13.6123 111.344 14.133 110.978 13.593C110.562 13.0377 110.496 12.0118 110.515 11.5683L112.521 11.5683V11.6068H112.559V12.0503C112.559 12.1892 112.842 12.4039 112.984 12.4939H114.218V11.4525C114.147 11.4654 113.99 11.4911 113.928 11.4911C113.601 11.5104 113.62 11.5297 113.62 11.4525C113.82 10.9435 113.845 10.0963 113.832 9.73632C113.832 8.5986 113.472 7.75656 113.234 7.36446V7.22947L114.218 7.36446V7.01736C114.121 6.95951 113.986 6.88237 113.986 6.63169C113.986 6.381 114.16 6.16888 114.43 6.16888C114.7 6.16888 114.893 6.30387 114.912 6.59312C114.927 6.82452 114.764 6.97236 114.681 7.01736V7.42231C114.835 7.44802 115.186 7.50716 115.355 7.53801C117.187 9.13854 116.57 11.2597 116.204 11.684C115.838 12.1082 115.799 11.9154 115.683 11.8189C115.375 11.5413 114.886 11.4847 114.681 11.4911V12.4939H115.992C116.331 12.4939 116.519 12.1339 116.57 11.9539C116.879 11.9668 117.588 11.9424 117.959 11.7418C118.422 11.4911 118.499 11.4911 118.537 11.4911C118.711 11.5875 118.634 11.7032 118.557 11.7418C117.997 12.0311 117.747 12.571 117.612 12.8988C117.477 13.2266 117.322 13.6509 117.13 13.8244C116.937 13.998 116.705 13.6894 116.339 13.6894C115.973 13.6894 115.953 13.8823 115.625 13.8823C115.298 13.8823 115.201 13.6894 114.854 13.6894C114.507 13.6894 114.43 13.863 114.102 13.8823C113.774 13.9015 113.678 13.6894 113.35 13.6894C113.022 13.6894 112.868 13.863 112.579 13.8823C112.289 13.9015 112.174 13.728 111.846 13.6894Z" fill="#2DCACF"/>
<path d="M113.157 9.06065L112.328 8.63641C112.045 9.35633 111.464 10.8347 111.402 10.989C111.341 11.1433 111.389 11.1818 111.422 11.1818H113.215C113.261 11.1818 113.273 11.1176 113.273 11.0854V9.06065H113.157Z" fill="#2DCACF"/>
<path fill-rule="evenodd" clip-rule="evenodd" d="M114.333 19.6664C119.488 19.6664 123.666 15.4878 123.666 10.3332C123.666 5.17861 119.488 1 114.333 1C109.179 1 105 5.17861 105 10.3332C105 15.4878 109.179 19.6664 114.333 19.6664ZM114.333 17.0824C118.061 17.0824 121.082 14.0607 121.082 10.3332C121.082 6.60573 118.061 3.584 114.333 3.584C110.606 3.584 107.584 6.60573 107.584 10.3332C107.584 14.0607 110.606 17.0824 114.333 17.0824Z" fill="#2DCACF"/>
<path d="M8.875 5.20709C6.625 5.20709 4.83203 7.03522 4.83203 9.25006C4.83203 11.5001 6.625 13.293 8.875 13.293C11.0898 13.293 12.918 11.5001 12.918 9.25006C12.918 7.03522 11.0898 5.20709 8.875 5.20709ZM8.875 11.8868C7.43359 11.8868 6.23828 10.7266 6.23828 9.25006C6.23828 7.80865 7.39844 6.6485 8.875 6.6485C10.3164 6.6485 11.4766 7.80865 11.4766 9.25006C11.4766 10.7266 10.3164 11.8868 8.875 11.8868ZM14.0078 5.06647C14.0078 4.53912 13.5859 4.11725 13.0586 4.11725C12.5312 4.11725 12.1094 4.53912 12.1094 5.06647C12.1094 5.59381 12.5312 6.01569 13.0586 6.01569C13.5859 6.01569 14.0078 5.59381 14.0078 5.06647ZM16.6797 6.01569C16.6094 4.75006 16.3281 3.62506 15.4141 2.711C14.5 1.79694 13.375 1.51569 12.1094 1.44537C10.8086 1.37506 6.90625 1.37506 5.60547 1.44537C4.33984 1.51569 3.25 1.79694 2.30078 2.711C1.38672 3.62506 1.10547 4.75006 1.03516 6.01569C0.964844 7.31647 0.964844 11.2188 1.03516 12.5196C1.10547 13.7852 1.38672 14.8751 2.30078 15.8243C3.25 16.7383 4.33984 17.0196 5.60547 17.0899C6.90625 17.1602 10.8086 17.1602 12.1094 17.0899C13.375 17.0196 14.5 16.7383 15.4141 15.8243C16.3281 14.8751 16.6094 13.7852 16.6797 12.5196C16.75 11.2188 16.75 7.31647 16.6797 6.01569ZM14.9922 13.8907C14.7461 14.5938 14.1836 15.1212 13.5156 15.4024C12.4609 15.8243 10 15.7188 8.875 15.7188C7.71484 15.7188 5.25391 15.8243 4.23438 15.4024C3.53125 15.1212 3.00391 14.5938 2.72266 13.8907C2.30078 12.8712 2.40625 10.4102 2.40625 9.25006C2.40625 8.12506 2.30078 5.66412 2.72266 4.60944C3.00391 3.94147 3.53125 3.41412 4.23438 3.13287C5.25391 2.711 7.71484 2.81647 8.875 2.81647C10 2.81647 12.4609 2.711 13.5156 3.13287C14.1836 3.37897 14.7109 3.94147 14.9922 4.60944C15.4141 5.66412 15.3086 8.12506 15.3086 9.25006C15.3086 10.4102 15.4141 12.8712 14.9922 13.8907Z" fill="#0F0028"/>
<path d="M51.1367 5.59381C51.8398 5.06647 52.4727 4.43365 52.9648 3.69537C52.332 3.97662 51.5938 4.18756 50.8555 4.25787C51.6289 3.80084 52.1914 3.09772 52.4727 2.21881C51.7695 2.64069 50.9609 2.95709 50.1523 3.13287C49.4492 2.39459 48.5 1.97272 47.4453 1.97272C45.4062 1.97272 43.7539 3.62506 43.7539 5.66412C43.7539 5.94537 43.7891 6.22662 43.8594 6.50787C40.8008 6.33209 38.0586 4.85553 36.2305 2.64069C35.9141 3.16803 35.7383 3.80084 35.7383 4.50397C35.7383 5.76959 36.3711 6.89459 37.3906 7.56256C36.793 7.5274 36.1953 7.38678 35.7031 7.10553V7.14069C35.7031 8.93365 36.9688 10.4102 38.6562 10.7618C38.375 10.8321 38.0234 10.9024 37.707 10.9024C37.4609 10.9024 37.25 10.8672 37.0039 10.8321C37.4609 12.3087 38.832 13.3633 40.4492 13.3985C39.1836 14.3829 37.6016 14.9805 35.8789 14.9805C35.5625 14.9805 35.2812 14.9454 35 14.9102C36.6172 15.9649 38.5508 16.5626 40.6602 16.5626C47.4453 16.5626 51.1367 10.9727 51.1367 6.086C51.1367 5.91022 51.1367 5.76959 51.1367 5.59381Z" fill="#0F0028"/>
<path d="M74.5157 16.0001V5.48834H71.2462V16.0001H74.5157ZM72.8633 4.08209C73.918 4.08209 74.7618 3.20319 74.7618 2.1485C74.7618 1.12897 73.918 0.285217 72.8633 0.285217C71.8438 0.285217 71.0001 1.12897 71.0001 2.1485C71.0001 3.20319 71.8438 4.08209 72.8633 4.08209ZM86.7149 16.0001H86.7501V10.2344C86.7501 7.42194 86.1172 5.24225 82.8126 5.24225C81.2305 5.24225 80.1758 6.12115 79.7188 6.92975H79.6837V5.48834H76.5547V16.0001H79.8243V10.7969C79.8243 9.42584 80.0704 8.12506 81.7579 8.12506C83.4454 8.12506 83.4805 9.67194 83.4805 10.9024V16.0001H86.7149Z" fill="#0F0028"/>
<path d="M152.441 8.82819C152.441 8.26569 152.019 7.80865 151.527 7.80865C151 7.80865 150.578 8.26569 150.578 8.82819C150.578 9.35553 151 9.81256 151.527 9.81256C152.019 9.81256 152.441 9.35553 152.441 8.82819ZM148.223 7.80865C147.73 7.80865 147.309 8.26569 147.309 8.82819C147.309 9.35553 147.73 9.81256 148.223 9.81256C148.75 9.81256 149.137 9.35553 149.137 8.82819C149.172 8.26569 148.75 7.80865 148.223 7.80865ZM157.75 2.11334C157.75 1.09381 156.906 0.250061 155.887 0.250061H143.828C142.809 0.250061 142 1.09381 142 2.11334V14.2774C142 15.3321 142.809 16.1407 143.828 16.1407H154.023L153.566 14.4883C156.203 16.9141 155.465 16.2813 157.75 18.2501V2.11334ZM155.184 10.6563C155.184 10.6563 154.41 11.9571 152.406 12.0274C152.406 12.0274 152.09 11.6407 151.809 11.2891C153.004 10.9727 153.461 10.2344 153.461 10.2344C153.074 10.4805 152.723 10.6212 152.406 10.7618C150.473 11.5704 148.328 11.2891 146.781 10.4454C146.781 10.4102 146.57 10.3047 146.43 10.1993C146.43 10.1993 146.852 10.9376 148.012 11.2891C147.73 11.6055 147.414 12.0274 147.414 12.0274C145.41 11.9571 144.672 10.6563 144.672 10.6563C144.672 7.73834 145.937 5.41803 145.937 5.41803C147.238 4.43365 148.469 4.46881 148.469 4.46881L148.574 4.57428C146.957 5.03131 146.219 5.73444 146.219 5.73444C146.219 5.73444 146.394 5.62897 146.746 5.48834C148.82 4.57428 151.316 4.57428 153.461 5.73444C153.461 5.73444 152.758 5.06647 151.211 4.60944L151.352 4.46881C151.352 4.46881 152.582 4.43365 153.883 5.41803C153.883 5.41803 155.184 7.73834 155.184 10.6563Z" fill="#0F0028"/>
<path d="M179.305 11.3594V9.70709H177.652C176.738 9.70709 176 10.4454 176 11.3594C176 12.2383 176.738 13.0118 177.652 13.0118C178.531 13.0118 179.305 12.2383 179.305 11.3594ZM180.113 11.3594V15.4727C180.113 16.3868 180.887 17.1251 181.766 17.1251C182.68 17.1251 183.418 16.3868 183.418 15.4727V11.3594C183.418 10.4454 182.68 9.70709 181.766 9.70709C180.887 9.70709 180.113 10.4454 180.113 11.3594ZM181.766 4.7149H183.418V3.06256C183.418 2.1485 182.68 1.37506 181.766 1.37506C180.887 1.37506 180.113 2.1485 180.113 3.06256C180.113 3.94147 180.887 4.7149 181.766 4.7149ZM181.766 5.5235H177.652C176.738 5.5235 176 6.26178 176 7.17584C176 8.0899 176.738 8.82819 177.652 8.82819H181.766C182.68 8.82819 183.418 8.0899 183.418 7.17584C183.418 6.26178 182.68 5.5235 181.766 5.5235ZM188.41 7.17584V8.82819H190.062C190.977 8.82819 191.75 8.0899 191.75 7.17584C191.75 6.26178 190.977 5.5235 190.062 5.5235C189.184 5.5235 188.41 6.26178 188.41 7.17584ZM187.602 7.17584V3.06256C187.602 2.1485 186.863 1.37506 185.949 1.37506C185.035 1.37506 184.297 2.1485 184.297 3.06256V7.17584C184.297 8.0899 185.035 8.82819 185.949 8.82819C186.863 8.82819 187.602 8.0899 187.602 7.17584ZM185.949 13.8204H184.297V15.4727C184.297 16.3868 185.035 17.1251 185.949 17.1251C186.863 17.1251 187.602 16.3868 187.602 15.4727C187.602 14.5938 186.863 13.8204 185.949 13.8204ZM185.949 13.0118H190.062C190.977 13.0118 191.75 12.2383 191.75 11.3594C191.75 10.4454 190.977 9.70709 190.062 9.70709H185.949C185.035 9.70709 184.297 10.4454 184.297 11.3594C184.297 12.2383 185.035 13.0118 185.949 13.0118Z" fill="#0F0028"/>
</svg>
